# xmcd CD database file
#
# Track frame offsets:
#	150
#	16614
#	30136
#	43327
#	55855
#	72756
#	84249
#	98971
#	113643
#	130081
#
# Disc length: 1898 seconds
#
# Revision: 1
# Processed by: cddbd v1.5.2PL0 Copyright (c) Steve Scherf et al.
# Submitted via: CDex 1.51
#
DISCID=6e07680a
DTITLE=Toby Keith - Hope On The Rocks
DYEAR=2012
DGENRE=Country
TTITLE0=Hope On The Rocks
TTITLE1=The Size I Wear
TTITLE2=Scat Cat
TTITLE3=I Like Girls That Drink Beer
TTITLE4=Get Got
TTITLE5=Haven't Had A Drink All Day
TTITLE6=Haven't Seen The Last Of You
TTITLE7=Cold Beer Country
TTITLE8=Missed You Just Right
TTITLE9=You Ain't Alone
EXTD=YEAR: 2012
EXTT0=
EXTT1=
EXTT2=
EXTT3=
EXTT4=
EXTT5=
EXTT6=
EXTT7=
EXTT8=
EXTT9=
PLAYORDER=
